<svg width="92" height="216" viewBox="0 0 92 216" fill="none" xmlns="http://www.w3.org/2000/svg">
<path opacity="0.4" d="M57.9203 215.004C76.5212 215.004 91.6003 206.296 91.6003 195.554C91.6003 184.812 76.5212 176.104 57.9203 176.104C39.3193 176.104 24.2402 184.812 24.2402 195.554C24.2402 206.296 39.3193 215.004 57.9203 215.004Z" fill="#D6D8E5"/>
<path d="M85.7599 47.4342C86.1499 50.7942 90.1599 65.3142 89.2999 70.2842C88.4399 75.2542 74.7699 83.5742 74.7699 83.5742L72.9199 75.0542L80.5099 67.6642L78.4599 53.5542L85.7599 47.4342Z" fill="#FFCEA9"/>
<path d="M75.1499 33.1342C76.4839 32.5145 77.9991 32.4063 79.4076 32.8303C80.8161 33.2543 82.0198 34.181 82.7899 35.4342C84.7899 38.7842 86.9099 50.2242 87.0899 52.1942C87.0899 52.1942 84.2599 56.1143 80.0199 55.4543L75.1499 33.1342Z" fill="#EDEDED"/>
<path d="M59.5 195.004C56.5143 195.827 53.3249 195.442 50.62 193.934C48.48 193.994 36.88 189.034 35.3 193.204C33.92 196.904 38.94 200.204 41.63 200.884C47.49 202.314 51.8 205.234 54.18 205.724C55.94 206.094 58.18 206.344 59.61 204.964C61.28 203.264 61.14 197.144 59.5 195.004Z" fill="#38226D"/>
<path d="M54.1801 204.674C51.8301 204.174 47.4901 201.254 41.6301 199.834C39.3801 199.294 35.5001 196.834 35.1101 193.894C34.5901 197.254 39.1101 200.244 41.6301 200.844C47.4901 202.274 51.8001 205.194 54.1801 205.684C55.9401 206.054 58.1801 206.304 59.6101 204.924C59.9717 204.52 60.2352 204.037 60.3801 203.514C59.5074 204.175 58.4929 204.624 57.4169 204.825C56.3408 205.026 55.2327 204.975 54.1801 204.674V204.674Z" fill="#9C73FF"/>
<path d="M78.3199 186.514C75.3346 187.342 72.1431 186.958 69.4399 185.444C67.2999 185.504 55.6999 180.534 54.1299 184.704C52.7399 188.364 57.7699 191.704 60.4499 192.394C66.3099 193.814 70.6199 196.744 72.9999 197.244C74.7599 197.614 76.9999 197.854 78.4299 196.474C80.0999 194.814 79.9999 188.694 78.3199 186.514Z" fill="#38226D"/>
<path d="M73.0002 196.224C70.6502 195.724 66.3102 192.804 60.4502 191.384C58.2002 190.844 54.3202 188.384 53.9802 185.444C53.4602 188.804 57.9802 191.794 60.4502 192.394C66.3102 193.814 70.6202 196.744 73.0002 197.244C74.7602 197.614 77.0002 197.854 78.4302 196.474C78.7879 196.067 79.0509 195.585 79.2002 195.064C78.3275 195.725 77.313 196.174 76.237 196.375C75.161 196.576 74.0528 196.525 73.0002 196.224V196.224Z" fill="#9C73FF"/>
<path d="M78.55 155.004C78.0491 150.697 77.152 146.446 75.87 142.304C75.87 142.304 76.67 131.304 77.07 120.924C77.52 109.124 81.62 98.7342 78.38 89.3342L42 97.4042C42 97.4042 44.2 144.454 44.7 150.114C44.9627 154.544 45.5072 158.953 46.33 163.314C47.99 172.454 50.69 194.174 50.69 194.174C54.54 196.414 59.59 195.174 59.59 195.174C59.59 195.174 59.32 167.704 59.07 161.114C58.77 153.114 58.52 153.724 58.52 153.724L59.72 133.724L60.51 123.774C60.51 123.774 61.51 131.084 62.17 137.644C62.75 143.334 64.12 148.484 65.66 159.074C66.99 168.264 69.15 186.734 69.15 186.734C73 188.974 78.23 187.114 78.23 187.114C78.23 187.114 79.58 163.004 78.55 155.004Z" fill="#8C50FF"/>
<path d="M73.23 33.3242C70.46 33.4642 68.39 34.1742 68.04 33.3242C67.7497 31.8903 67.5394 30.4414 67.41 28.9842C67.73 28.1842 68.01 27.3242 68.01 27.3242C71.49 25.1742 72.63 21.4142 73.01 17.0342C73.79 9.53419 69.74 3.0342 62.25 2.2342C55.2 1.5042 50.03 6.4542 48.65 13.2342C47.9 16.5942 46.42 22.9242 48.43 28.4542C49.54 31.5342 50.99 33.9942 52.43 34.4542C53.8258 34.4146 55.2181 34.2944 56.6 34.0942C56.6 34.0942 56.98 36.1742 57.23 37.5042C57.48 38.8342 57.39 39.5042 54.73 41.2042C52.07 42.9042 58.73 46.2042 63.11 45.8842C67.49 45.5642 72.36 42.8842 73.74 40.0942C75.27 36.9442 75.14 33.2342 73.23 33.3242Z" fill="#FFCEA9"/>
<path d="M69.22 33.7442C69.99 35.6542 68.03 37.9942 62.83 39.6342C57.63 41.2742 57.15 39.1642 57.15 39.1642C57.15 39.1642 49.51 42.6442 47.02 44.3742C43.9 46.5642 42.52 52.8842 42.09 63.5642C41.6 75.9142 41.57 94.2342 41.97 97.4042C41.97 97.4042 47.82 103.224 55.29 102.604C62.76 101.984 75.29 95.3842 78.41 90.2742C78.32 79.4442 77.06 77.6742 78.81 71.4442C82.81 57.1542 84.94 51.3142 82.99 41.8542C81.38 34.0242 79.12 33.0542 75.99 33.1342C73.7239 33.214 71.4638 33.4176 69.22 33.7442V33.7442Z" fill="#F4F4F4"/>
<path d="M30.3802 75.8442C36.5202 77.3942 37.9502 73.5242 38.7702 70.2942C40.7702 62.5442 41.7702 55.5042 43.2202 51.1442C44.9302 45.9442 46.7302 45.1442 49.2202 44.1442C52.2202 42.9642 54.7702 45.4642 53.7402 52.0742C52.5802 59.8842 51.0402 65.3842 48.1202 74.6242C47.3602 77.0442 45.6502 81.3342 43.1202 83.4042C39.9602 85.9642 35.2002 85.8542 27.9802 84.0642C24.9002 83.2942 21.5102 81.4642 15.7102 78.7442C14.1502 78.0142 12.9402 77.5342 9.94023 76.1342C6.93027 74.7841 4.29182 72.7255 2.25023 70.1342C0.670228 67.8542 0.470236 66.7842 0.790236 66.2642C1.11024 65.7442 1.90024 65.7542 2.79024 66.7242C4.00719 68.3353 5.50442 69.714 7.21022 70.7942C7.21022 70.7942 5.27022 68.7942 4.21022 67.4942C3.26781 66.3425 2.48727 65.0674 1.89024 63.7042C1.33024 62.3842 2.47022 60.5842 3.34022 61.5242C4.21022 62.4642 4.63023 63.4342 6.22023 65.3342C7.03526 66.3336 7.96878 67.2302 9.00023 68.0042C8.01617 66.6694 7.14006 65.2582 6.38023 63.7842C5.72168 62.6255 5.3996 61.306 5.45024 59.9742C5.45024 59.2842 6.45024 58.4542 7.45024 59.7742C8.45024 61.0942 8.81023 62.7742 10.7502 64.7742C12.1402 66.2342 13.3402 67.0642 13.3702 66.6642C13.4002 66.2642 12.5202 65.4642 12.0202 63.7742C11.5202 62.0842 12.0202 60.2842 12.9502 60.0742C13.8802 59.8642 13.7102 59.9242 14.4602 61.5142C15.2102 63.1042 16.3602 64.2942 17.2302 66.5842C17.703 68.215 18.5682 69.7052 19.7502 70.9242C21.1802 72.5942 24.5102 74.3742 30.3802 75.8442Z" fill="#FFCEA9"/>
<path d="M51.4899 43.0942C47.3899 42.4742 44.4899 44.3242 42.6899 50.4842C40.8899 56.6442 39.6299 61.8142 39.6299 61.8142C41.2538 64.1555 43.7117 65.787 46.4999 66.3742C51.3999 67.5542 53.1499 65.2242 53.1499 65.2242C53.1499 65.2242 54.5099 58.7442 55.3599 54.2842C56.2099 49.8242 56.5599 43.8242 51.4899 43.0942Z" fill="#EDEDED"/>
<path d="M53.01 24.0443L60.02 21.9942L59.81 21.5342L52.79 23.5842L53.01 24.0443Z" fill="white"/>
<path d="M53.57 27.3642L53.52 27.8642L59.37 27.7542L59.42 27.2542L53.57 27.3642Z" fill="white"/>
<path d="M52.7999 34.5342C50.9399 34.5342 49.3999 31.5842 48.2399 28.5342C47.4673 26.3844 47.111 24.1072 47.19 21.8242C47.1914 21.7694 47.2065 21.7159 47.2338 21.6684C47.2612 21.6209 47.2999 21.5809 47.3465 21.5521C47.3932 21.5234 47.4463 21.5067 47.501 21.5035C47.5557 21.5004 47.6103 21.5109 47.66 21.5342C49.4956 22.6679 51.6125 23.2638 53.7699 23.2542L54.7699 28.0142C54.7699 28.0142 52.9999 34.2942 52.7999 34.5342Z" fill="#EDEDED"/>
<path d="M48.9202 12.2542C48.9202 12.2542 42.4502 2.41421 56.4702 0.414213C66.5902 -1.03579 73.1202 5.41422 73.8402 12.5142C74.5602 19.2442 70.4102 26.2542 67.4102 29.0242C65.9502 29.5542 62.7902 29.8442 58.6802 28.0242C58.5037 26.1798 58.4369 24.3265 58.4802 22.4742C58.4802 22.4742 63.4102 12.0842 48.9202 12.2542Z" fill="#3A2C6D"/>
<path d="M82.0702 55.8642L42.0002 93.2242L39.6602 165.064C39.6602 165.064 50.9002 170.554 63.6602 167.584L66.0002 140.004L69.5402 165.004L69.1201 165.764C75.1723 163.053 80.3618 158.728 84.1201 153.264L82.0702 55.8642Z" fill="#F4F4F4"/>
<path d="M39.6301 61.8142L37.6301 70.4842C37.6301 70.4842 35.9501 76.5542 31.6301 75.0142C27.5634 73.3033 23.6 71.3567 19.7601 69.1842L14.5801 79.8142L25.2901 84.8142C25.2901 84.8142 40.1601 90.1142 44.2901 84.8142C48.4201 79.5142 53.0601 65.2042 53.0601 65.2042L39.6301 61.8142Z" fill="#EDEDED"/>
</svg>
