<?xml version="1.0" standalone="no"?><!DOCTYPE svg PUBLIC "-//W3C//DTD SVG 1.1//EN" "http://www.w3.org/Graphics/SVG/1.1/DTD/svg11.dtd"><svg t="1639119812394" class="icon" viewBox="0 0 1024 1024" version="1.1" xmlns="http://www.w3.org/2000/svg" p-id="4202" xmlns:xlink="http://www.w3.org/1999/xlink" width="200" height="200"><defs><style type="text/css"></style></defs><path d="M183.28212 16.055736a38.399827 38.399827 0 1 1-38.399828 38.399827 38.399827 38.399827 0 0 1 38.399828-38.399827z m204.056681 0.742396a38.399827 38.399827 0 1 1-38.399827 38.399828 38.399827 38.399827 0 0 1 38.399827-38.399828z m-94.463575 477.565851a51.19977 51.19977 0 1 1-51.199769 51.19977 51.19977 51.19977 0 0 1 51.199769-51.19977z m616.778025 337.91848a76.799654 76.799654 0 1 1-76.799654 76.799654 76.799654 76.799654 0 0 1 76.799654-76.799654z" fill="#48BCF5" p-id="4203"></path><path d="M1024.084736 896.000576a127.999424 127.999424 0 1 1-153.599309-125.439436V716.801382a127.999424 127.999424 0 0 0-255.998848 0v127.999424a179.199194 179.199194 0 0 1-358.398387 0v-208.459862a102.11794 102.11794 0 0 1-75.980458-90.521192C113.138435 519.989468 78.373792 467.996102 51.289114 409.602765 18.82846 339.66388-1.523449 194.410133 0.089344 102.404147a76.799654 76.799654 0 0 1 76.799654-76.799654h58.290938a51.19977 51.19977 0 1 1 0 51.199769H102.488883c-38.399827 0-50.943771 14.387135-51.199769 51.19977-0.793596 109.593107 13.772738 209.151059 51.199769 281.598733a170.725632 170.725632 0 0 0 86.194812 85.657214 102.14354 102.14354 0 0 1 186.879159 1.382394A148.479332 148.479332 0 0 0 460.88727 409.602765a757.75659 757.75659 0 0 0 51.19977-281.598733 46.412591 46.412591 0 0 0-51.19977-51.19977h-32.691052a51.19977 51.19977 0 1 1 0-51.199769H486.487155a80.588437 80.588437 0 0 1 76.799655 76.799654 729.827116 729.827116 0 0 1-51.19977 307.198618c-26.64948 60.338928-60.774127 112.409094-128.97222 137.522581A102.015541 102.015541 0 0 1 307.287962 636.340944V844.800806a127.999424 127.999424 0 0 0 255.998848 0v-127.999424a179.199194 179.199194 0 0 1 358.398387 0v53.759758a127.999424 127.999424 0 0 1 102.399539 125.439436zM179.288538 89.604205A38.399827 38.399827 0 1 0 140.88871 51.204378 38.399827 38.399827 0 0 0 179.288538 89.604205z m204.799078-76.799655A38.399827 38.399827 0 1 0 422.487443 51.204378 38.399827 38.399827 0 0 0 384.087616 12.80455zM332.887846 537.602189a51.19977 51.19977 0 1 0-51.199769 51.199769 51.19977 51.19977 0 0 0 51.199769-51.199769z m563.197466 281.598733a76.799654 76.799654 0 1 0 76.799654 76.799654 76.799654 76.799654 0 0 0-76.799654-76.799654z" fill="#4076FE" p-id="4204"></path></svg>